<?xml version="1.0" encoding="utf-8"?>
<!-- Generator: Adobe Illustrator 25.2.1, SVG Export Plug-In . SVG Version: 6.00 Build 0)  -->
<svg version="1.1" id="Layer_1" xmlns="http://www.w3.org/2000/svg" xmlns:xlink="http://www.w3.org/1999/xlink" x="0px" y="0px"
	 viewBox="0 0 227 60" enable-background="new 0 0 227 60" xml:space="preserve">
<g>
	<defs>
		<rect id="SVGID_1_" x="-30" y="-50.008" width="286" height="160.875"/>
	</defs>
	<clipPath id="SVGID_2_">
		<use xlink:href="#SVGID_1_"  overflow="visible"/>
	</clipPath>
	<path clip-path="url(#SVGID_2_)" fill="#1F3B70" d="M7.089,35.589h8.497v2.926c0,1.149-0.932,2.081-2.081,2.081H0.602V17.303
		c0-1.843,1.494-3.338,3.338-3.338h3.149V35.589z"/>
	<path clip-path="url(#SVGID_2_)" fill="#1F3B70" d="M100.314,21.591c1.555,1.593,2.333,3.806,2.333,6.638v12.367h-4.681
		c-0.976,0-1.768-0.792-1.768-1.768v-9.726c0-1.366-0.36-2.421-1.081-3.168c-0.721-0.746-1.714-1.119-2.978-1.119
		c-1.265,0-2.257,0.373-2.978,1.119c-0.721,0.746-1.081,1.802-1.081,3.168v11.494h-6.449V29.102c0-1.366-0.36-2.421-1.081-3.168
		c-0.721-0.746-1.714-1.119-2.978-1.119c-1.265,0-2.257,0.373-2.978,1.119c-0.721,0.746-1.081,1.802-1.081,3.168v11.494h-6.487
		V22.27c0-1.57,1.272-2.842,2.842-2.842h3.645v2.655c0.657-0.885,1.518-1.587,2.58-2.105c1.062-0.518,2.263-0.778,3.604-0.778
		c1.593,0,3.016,0.341,4.268,1.024c1.252,0.683,2.232,1.657,2.94,2.921c0.733-1.163,1.732-2.111,2.997-2.845
		c1.264-0.733,2.643-1.1,4.135-1.1C96.666,19.201,98.759,19.997,100.314,21.591"/>
	<path clip-path="url(#SVGID_2_)" fill="#54C0B0" d="M119.641,39.913c-1.543-0.632-2.776-1.567-3.699-2.807
		c-0.534-0.716-0.922-1.516-1.164-2.402c-0.286-1.047,0.533-2.075,1.619-2.075h4.988c0.101,0.986,0.442,1.739,1.024,2.257
		c0.582,0.519,1.34,0.778,2.276,0.778c0.961,0,1.719-0.221,2.276-0.664c0.556-0.442,0.835-1.056,0.835-1.84
		c0-0.657-0.222-1.201-0.664-1.631c-0.442-0.43-0.986-0.784-1.631-1.062c-0.645-0.278-1.562-0.594-2.75-0.948
		c-1.72-0.531-3.124-1.062-4.211-1.593c-1.088-0.531-2.024-1.315-2.807-2.352c-0.784-1.037-1.176-2.39-1.176-4.059
		c0-2.478,0.898-4.419,2.694-5.823c1.796-1.403,4.135-2.106,7.018-2.106c2.934,0,5.298,0.702,7.094,2.106
		c0.811,0.634,1.451,1.379,1.921,2.237c0.894,1.63-0.317,3.624-2.176,3.624h-3.88c-0.051-0.859-0.367-1.536-0.949-2.029
		c-0.582-0.493-1.327-0.74-2.238-0.74c-0.784,0-1.417,0.209-1.897,0.626c-0.481,0.417-0.721,1.018-0.721,1.802
		c0,0.86,0.404,1.53,1.214,2.011c0.809,0.481,2.073,0.999,3.793,1.555c1.719,0.582,3.117,1.138,4.192,1.669
		c1.074,0.531,2.004,1.303,2.788,2.314c0.784,1.012,1.176,2.314,1.176,3.907c0,1.517-0.386,2.896-1.157,4.135
		c-0.772,1.239-1.891,2.226-3.357,2.959c-1.467,0.734-3.2,1.1-5.197,1.1C122.928,40.862,121.183,40.546,119.641,39.913"/>
	<path clip-path="url(#SVGID_2_)" fill="#54C0B0" d="M150.368,35.096v3.182c0,1.28-1.038,2.318-2.318,2.318h-0.982
		c-2.352,0-4.186-0.575-5.501-1.726c-1.316-1.151-1.973-3.028-1.973-5.633v-8.422h-2.58v-5.387h2.58v-3.355
		c0-0.997,0.808-1.804,1.805-1.804h4.682v5.159h4.248v5.387h-4.248v8.497c0,0.632,0.152,1.088,0.455,1.366
		c0.303,0.279,0.809,0.417,1.517,0.417H150.368z"/>
	<path clip-path="url(#SVGID_2_)" fill="#54C0B0" d="M174.874,19.429v19.818c0,0.745-0.604,1.35-1.35,1.35h-5.137v-2.883
		c-0.658,0.936-1.549,1.688-2.674,2.257c-1.126,0.569-2.371,0.854-3.737,0.854c-1.619,0-3.048-0.36-4.287-1.081
		c-1.239-0.72-2.2-1.764-2.883-3.129c-0.683-1.366-1.024-2.971-1.024-4.818v-9.737c0-1.453,1.178-2.63,2.63-2.63h3.819v11.494
		c0,1.417,0.367,2.517,1.1,3.301c0.734,0.784,1.72,1.176,2.959,1.176c1.264,0,2.263-0.392,2.996-1.176
		c0.733-0.784,1.1-1.884,1.1-3.301V19.429H174.874z"/>
	<path clip-path="url(#SVGID_2_)" fill="#54C0B0" d="M179.483,24.246c0.821-1.644,1.94-2.908,3.357-3.794
		c1.416-0.885,2.997-1.328,4.742-1.328c1.39,0,2.661,0.291,3.812,0.872c1.151,0.582,2.054,1.366,2.712,2.352v-8.912
		c0-0.505,0.409-0.914,0.914-0.914h4.66c0.505,0,0.914,0.409,0.914,0.914v27.158h-6.487v-3.034
		c-0.607,1.012-1.473,1.821-2.599,2.428c-1.126,0.607-2.434,0.911-3.926,0.911c-1.745,0-3.326-0.449-4.742-1.347
		c-1.417-0.898-2.536-2.175-3.357-3.832c-0.822-1.656-1.233-3.572-1.233-5.747C178.25,27.8,178.661,25.89,179.483,24.246
		 M192.76,26.181c-1.109-1.155-2.515-1.598-4.222-1.326c-0.248,0.039-0.495,0.111-0.725,0.213c-1.976,0.872-2.962,2.507-2.962,4.907
		c0,1.619,0.449,2.902,1.347,3.85c0.897,0.949,1.992,1.423,3.281,1.423c1.29,0,2.383-0.468,3.282-1.404
		c0.897-0.935,1.347-2.213,1.347-3.832C194.107,28.394,193.658,27.117,192.76,26.181"/>
	<path clip-path="url(#SVGID_2_)" fill="#54C0B0" d="M226.92,19.429l-15.975,35.584c-1.123,2.301-2.015,2.378-3.099,2.321h-4.368
		l8.041-17.459l-8.611-20.447h4.986c1.358,0,2.572,0.846,3.043,2.119l4.11,11.12l3.881-10.583c0.585-1.596,2.104-2.657,3.804-2.657
		H226.92z"/>
	<path clip-path="url(#SVGID_2_)" fill="#1F3B70" d="M62.791,31.545c-0.014,0.149-0.031,0.298-0.053,0.447
		c-0.253,1.72-0.962,3.443-1.935,4.882c-0.832,1.231-1.923,2.271-3.205,3.025c-1.18,0.694-2.491,1.138-3.833,1.388
		c-2.536,0.474-4.861-0.218-7.018-1.567c-2.092-1.308-3.831-3.02-5.518-4.792c-0.108-0.113-0.215-0.226-0.36-0.379
		c-0.146,0.153-0.28,0.294-0.414,0.434c-1.638,1.721-3.325,3.385-5.349,4.663c-1.593,1.005-3.294,1.729-5.205,1.754
		c-4.087,0.055-7.217-1.722-9.363-5.157c-3.39-5.425-1.377-12.753,4.294-15.637c3.468-1.764,6.879-1.514,10.171,0.549
		c2.041,1.279,3.746,2.943,5.396,4.672c0.146,0.153,0.292,0.308,0.411,0.435c0.816-0.789,1.606-1.569,2.414-2.33
		c1.608-1.516,3.32-2.89,5.384-3.747c3.903-1.62,8.528-0.462,11.437,2.86c1.253,1.431,2.138,3.149,2.528,5.013
		c0.057,0.274,0.089,0.547,0.139,0.821c0.1,0.539,0.121,1.055,0.121,1.603C62.835,30.835,62.823,31.191,62.791,31.545
		 M37.274,30.432c-1.295-1.234-2.47-2.42-3.722-3.517c-0.659-0.577-1.428-1.044-2.195-1.477c-1.018-0.575-2.111-0.621-3.23-0.265
		c-3.59,1.142-4.911,5.789-2.497,8.794c1.311,1.632,3.822,2.794,6.335,1.142c0.548-0.36,1.111-0.715,1.593-1.154
		C34.79,32.833,35.98,31.665,37.274,30.432 M44.516,30.381c1.841,1.914,3.514,3.836,5.817,5.035
		c1.494,0.778,2.963,0.627,4.359-0.219c2.864-1.735,3.508-5.701,1.385-8.329c-1.32-1.634-3.836-2.753-6.302-1.11
		c-0.758,0.505-1.504,1.045-2.181,1.652C46.546,28.353,45.562,29.366,44.516,30.381"/>
	<path clip-path="url(#SVGID_2_)" fill="#1F3B70" d="M142.725,50.454c0.313-0.158,0.66-0.236,1.043-0.236
		c0.45,0,0.859,0.108,1.223,0.324c0.364,0.216,0.652,0.524,0.862,0.922c0.21,0.398,0.315,0.854,0.315,1.367
		c0,0.513-0.105,0.972-0.315,1.376c-0.21,0.405-0.499,0.72-0.866,0.945c-0.368,0.226-0.774,0.338-1.218,0.338
		c-0.396,0-0.746-0.077-1.052-0.232c-0.306-0.154-0.549-0.352-0.728-0.593v0.742h-1.056v-6.286c0-0.316,0.256-0.572,0.572-0.572
		h0.485v2.511C142.167,50.814,142.413,50.611,142.725,50.454 M144.875,51.918c-0.145-0.256-0.337-0.451-0.575-0.584
		c-0.238-0.133-0.493-0.199-0.764-0.199c-0.266,0-0.517,0.068-0.755,0.204c-0.238,0.136-0.429,0.334-0.575,0.593
		c-0.145,0.259-0.218,0.565-0.218,0.917c0,0.352,0.072,0.66,0.218,0.922c0.145,0.263,0.337,0.462,0.575,0.598
		c0.238,0.136,0.489,0.204,0.755,0.204c0.272,0,0.527-0.07,0.764-0.208c0.238-0.139,0.43-0.341,0.575-0.607
		c0.145-0.266,0.218-0.575,0.218-0.927C145.093,52.479,145.02,52.174,144.875,51.918"/>
	<path clip-path="url(#SVGID_2_)" fill="#1F3B70" d="M151.913,50.301l-3.132,7.506h-1.094l1.038-2.484l-2.011-5.023h0.726
		c0.271,0,0.513,0.169,0.607,0.423l1.281,3.469l1.279-3.336c0.128-0.335,0.45-0.556,0.808-0.556H151.913z"/>
	<path clip-path="url(#SVGID_2_)" fill="#1F3B70" d="M160.467,48.966v5.92c0,0.287-0.233,0.52-0.521,0.52h-0.536V52.59h-3.03v2.817
		h-0.508c-0.303,0-0.548-0.245-0.548-0.548v-5.47c0-0.233,0.189-0.423,0.423-0.423h0.634v2.762h3.03v-2.469
		c0-0.162,0.131-0.293,0.293-0.293H160.467z"/>
	<path clip-path="url(#SVGID_2_)" fill="#1F3B70" d="M161.926,51.469c0.213-0.395,0.504-0.703,0.871-0.922
		c0.367-0.219,0.774-0.329,1.218-0.329c0.402,0,0.752,0.079,1.052,0.236c0.299,0.158,0.539,0.354,0.718,0.588v-0.296
		c0-0.246,0.199-0.445,0.445-0.445h0.62v4.594c0,0.283-0.229,0.512-0.512,0.512h-0.554v-0.76c-0.18,0.241-0.423,0.442-0.732,0.602
		c-0.309,0.161-0.661,0.241-1.057,0.241c-0.438,0-0.84-0.113-1.204-0.338c-0.365-0.226-0.654-0.54-0.867-0.945
		c-0.213-0.405-0.32-0.863-0.32-1.376C161.606,52.318,161.713,51.864,161.926,51.469 M165.568,51.932
		c-0.146-0.259-0.335-0.457-0.57-0.593c-0.235-0.136-0.488-0.204-0.76-0.204c-0.272,0-0.525,0.066-0.76,0.199
		c-0.235,0.133-0.425,0.328-0.57,0.584c-0.145,0.257-0.218,0.561-0.218,0.913c0,0.352,0.073,0.661,0.218,0.927
		c0.145,0.266,0.336,0.468,0.574,0.607c0.238,0.139,0.49,0.208,0.756,0.208c0.272,0,0.525-0.068,0.76-0.204
		c0.235-0.136,0.425-0.335,0.57-0.597c0.145-0.263,0.218-0.57,0.218-0.922C165.786,52.497,165.713,52.191,165.568,51.932"/>
	<path clip-path="url(#SVGID_2_)" fill="#1F3B70" d="M169.117,55.272c-0.318-0.145-0.571-0.343-0.756-0.593
		c-0.256-0.348-0.008-0.839,0.424-0.839h0.299c0.043,0,0.077,0.032,0.085,0.075c0.034,0.183,0.134,0.339,0.3,0.467
		c0.188,0.145,0.425,0.218,0.709,0.218c0.296,0,0.527-0.057,0.69-0.171c0.164-0.114,0.246-0.261,0.246-0.44
		c0-0.191-0.091-0.334-0.273-0.426c-0.182-0.093-0.471-0.195-0.866-0.306c-0.383-0.105-0.695-0.207-0.936-0.306
		c-0.241-0.099-0.45-0.25-0.626-0.454c-0.176-0.204-0.264-0.473-0.264-0.806c0-0.272,0.08-0.52,0.241-0.746
		c0.161-0.225,0.391-0.403,0.69-0.533c0.3-0.13,0.644-0.195,1.033-0.195c0.58,0,1.049,0.147,1.404,0.44
		c0.158,0.13,0.283,0.282,0.376,0.454c0.181,0.338-0.089,0.746-0.472,0.746c-0.196,0-0.38-0.108-0.463-0.286
		c-0.047-0.1-0.115-0.187-0.205-0.26c-0.167-0.136-0.392-0.204-0.676-0.204c-0.278,0-0.491,0.053-0.639,0.158
		c-0.149,0.105-0.223,0.244-0.223,0.417c0,0.136,0.05,0.25,0.148,0.343c0.099,0.093,0.22,0.165,0.362,0.218
		c0.142,0.053,0.352,0.119,0.63,0.199c0.371,0.099,0.675,0.199,0.913,0.301c0.238,0.102,0.443,0.252,0.616,0.449
		c0.173,0.198,0.262,0.46,0.269,0.788c0,0.29-0.08,0.55-0.241,0.778c-0.161,0.229-0.388,0.408-0.681,0.538
		c-0.294,0.13-0.638,0.195-1.034,0.195C169.795,55.49,169.435,55.418,169.117,55.272"/>
	<path clip-path="url(#SVGID_2_)" fill="#1F3B70" d="M177.078,50.467c0.305,0.167,0.547,0.414,0.723,0.742
		c0.176,0.327,0.264,0.723,0.264,1.186v2.395c0,0.341-0.276,0.616-0.616,0.616h-0.43v-2.854c0-0.457-0.114-0.808-0.343-1.052
		c-0.229-0.244-0.541-0.366-0.936-0.366c-0.395,0-0.709,0.122-0.941,0.366c-0.232,0.244-0.348,0.595-0.348,1.052v2.854h-0.594
		c-0.255,0-0.462-0.207-0.462-0.462v-5.811c0-0.323,0.262-0.585,0.585-0.585h0.471v2.345c0.179-0.216,0.406-0.383,0.681-0.5
		c0.275-0.117,0.576-0.176,0.904-0.176C176.424,50.217,176.772,50.301,177.078,50.467"/>
	<path clip-path="url(#SVGID_2_)" fill="#1F3B70" d="M180.567,48.549v6.328c0,0.292-0.237,0.529-0.529,0.529h-0.528V49.23
		c0-0.376,0.305-0.681,0.681-0.681H180.567z"/>
	<path clip-path="url(#SVGID_2_)" fill="#1F3B70" d="M182.967,55.161c-0.39-0.219-0.695-0.528-0.917-0.927
		c-0.222-0.398-0.334-0.86-0.334-1.385c0-0.519,0.114-0.979,0.343-1.381c0.229-0.402,0.54-0.711,0.936-0.927
		c0.395-0.216,0.837-0.324,1.325-0.324c0.489,0,0.93,0.108,1.326,0.324c0.395,0.216,0.707,0.525,0.936,0.927
		c0.229,0.402,0.343,0.862,0.343,1.381c0,0.519-0.118,0.979-0.352,1.381c-0.235,0.402-0.555,0.712-0.959,0.931
		c-0.405,0.219-0.851,0.329-1.339,0.329C183.791,55.49,183.356,55.381,182.967,55.161 M185.038,54.378
		c0.238-0.13,0.431-0.324,0.579-0.584c0.149-0.26,0.223-0.575,0.223-0.945c0-0.371-0.071-0.684-0.213-0.941
		c-0.142-0.256-0.331-0.45-0.565-0.579c-0.235-0.13-0.488-0.195-0.759-0.195c-0.272,0-0.524,0.065-0.756,0.195
		c-0.231,0.13-0.415,0.323-0.551,0.579c-0.136,0.257-0.204,0.57-0.204,0.941c0,0.55,0.141,0.975,0.422,1.274s0.635,0.45,1.061,0.45
		C184.545,54.573,184.8,54.508,185.038,54.378"/>
	<path clip-path="url(#SVGID_2_)" fill="#1F3B70" d="M188.981,55.161c-0.39-0.219-0.695-0.528-0.917-0.927
		c-0.222-0.398-0.333-0.86-0.333-1.385c0-0.519,0.114-0.979,0.343-1.381c0.228-0.402,0.54-0.711,0.936-0.927
		c0.395-0.216,0.837-0.324,1.325-0.324c0.488,0,0.93,0.108,1.325,0.324c0.395,0.216,0.707,0.525,0.936,0.927
		c0.228,0.402,0.343,0.862,0.343,1.381c0,0.519-0.118,0.979-0.352,1.381c-0.235,0.402-0.555,0.712-0.959,0.931
		c-0.405,0.219-0.851,0.329-1.339,0.329C189.805,55.49,189.37,55.381,188.981,55.161 M191.052,54.378
		c0.238-0.13,0.431-0.324,0.579-0.584c0.149-0.26,0.223-0.575,0.223-0.945c0-0.371-0.071-0.684-0.213-0.941
		c-0.142-0.256-0.331-0.45-0.565-0.579c-0.235-0.13-0.488-0.195-0.759-0.195c-0.272,0-0.524,0.065-0.756,0.195
		c-0.231,0.13-0.415,0.323-0.551,0.579c-0.136,0.257-0.204,0.57-0.204,0.941c0,0.55,0.141,0.975,0.422,1.274
		c0.281,0.3,0.635,0.45,1.061,0.45C190.559,54.573,190.814,54.508,191.052,54.378"/>
	<path clip-path="url(#SVGID_2_)" fill="#1F3B70" d="M201.348,50.467c0.318,0.167,0.568,0.414,0.751,0.742
		c0.182,0.327,0.273,0.723,0.273,1.186v2.522c0,0.27-0.219,0.49-0.49,0.49h-0.557v-2.854c0-0.457-0.114-0.808-0.343-1.052
		c-0.229-0.244-0.541-0.366-0.936-0.366c-0.396,0-0.709,0.122-0.941,0.366c-0.232,0.244-0.348,0.595-0.348,1.052v2.854h-0.543
		c-0.279,0-0.504-0.226-0.504-0.504v-2.35c0-0.457-0.114-0.808-0.343-1.052c-0.228-0.244-0.54-0.366-0.936-0.366
		c-0.395,0-0.708,0.122-0.94,0.366c-0.231,0.244-0.347,0.595-0.347,1.052v2.854h-1.057v-4.403c0-0.389,0.315-0.703,0.703-0.703
		h0.353v0.584c0.172-0.21,0.392-0.374,0.657-0.491c0.266-0.117,0.55-0.176,0.853-0.176c0.408,0,0.772,0.087,1.093,0.26
		c0.321,0.173,0.568,0.423,0.742,0.751c0.179-0.358,0.474-0.632,0.887-0.82c0.298-0.136,0.629-0.197,0.957-0.19
		C200.708,50.227,201.047,50.31,201.348,50.467"/>
	<path clip-path="url(#SVGID_2_)" fill="#1F3B70" d="M202.305,10.277c-0.228-0.117-0.355-0.29-0.316-0.55
		c0.038-0.248,0.209-0.368,0.441-0.423V8.095c-0.049,0.011-0.094,0.018-0.136,0.03c-0.558,0.161-1.114,0.325-1.673,0.481
		c-0.107,0.03-0.134,0.08-0.133,0.187c0.005,0.704,0.003,1.409,0.003,2.113v0.182c-0.325-0.272-0.676-0.437-1.049-0.557
		c-0.807-0.258-1.638-0.324-2.478-0.291c-0.429,0.017-0.859,0.049-1.283,0.11c-0.59,0.085-1.128,0.305-1.597,0.753V10.92
		c0-0.714-0.003-1.428,0.003-2.142c0.001-0.111-0.034-0.151-0.141-0.178c-1.129-0.288-2.257-0.582-3.385-0.875
		c-0.017-0.004-0.034-0.01-0.085-0.026c0.068-0.025,0.108-0.042,0.149-0.054c2.193-0.617,4.387-1.235,6.581-1.849
		c0.064-0.018,0.142-0.024,0.205-0.006c2.084,0.622,4.167,1.247,6.25,1.872c0.022,0.007,0.044,0.013,0.107,0.032
		c-0.096,0.029-0.155,0.048-0.214,0.065c-0.312,0.091-0.626,0.18-0.937,0.276c-0.042,0.013-0.1,0.067-0.101,0.103
		c-0.007,0.387-0.005,0.774-0.005,1.164c0.244,0.058,0.415,0.183,0.447,0.439c0.029,0.24-0.082,0.408-0.306,0.528
		c0.191,0.706,0.381,1.414,0.573,2.124c-0.124,0.044-0.202,0.012-0.265-0.096c-0.078-0.134-0.171-0.258-0.278-0.417
		c-0.026,0.193-0.047,0.352-0.07,0.521h-0.706C202.038,11.688,202.171,10.985,202.305,10.277"/>
</g>
<g>
</g>
<g>
</g>
<g>
</g>
<g>
</g>
<g>
</g>
<g>
</g>
<g>
</g>
<g>
</g>
<g>
</g>
<g>
</g>
<g>
</g>
<g>
</g>
<g>
</g>
<g>
</g>
<g>
</g>
</svg>
